<?xml version="1.0" encoding="UTF-8" standalone="no"?>
<!DOCTYPE svg PUBLIC "-//W3C//DTD SVG 1.1//EN"
 "http://www.w3.org/Graphics/SVG/1.1/DTD/svg11.dtd">
<!-- Generated by graphviz version 2.43.0 (0)
 -->
<!-- Title: %3 Pages: 1 -->
<svg width="360pt" height="409pt"
 viewBox="0.00 0.00 360.00 409.00" xmlns="http://www.w3.org/2000/svg" xmlns:xlink="http://www.w3.org/1999/xlink">
<g id="graph0" class="graph" transform="scale(1 1) rotate(0) translate(4 405)">
<title>%3</title>
<polygon fill="white" stroke="transparent" points="-4,4 -4,-405 356,-405 356,4 -4,4"/>
<!-- call&#45;generateFastqs -->
<g id="node1" class="node">
<title>call&#45;generateFastqs</title>
<path fill="none" stroke="black" d="M125.14,-292.19C125.14,-292.19 31.06,-277.81 31.06,-277.81 25.13,-276.91 25.13,-275.09 31.06,-274.19 31.06,-274.19 125.14,-259.81 125.14,-259.81 131.07,-258.91 142.93,-258.91 148.86,-259.81 148.86,-259.81 242.94,-274.19 242.94,-274.19 248.87,-275.09 248.87,-276.91 242.94,-277.81 242.94,-277.81 148.86,-292.19 148.86,-292.19 142.93,-293.09 131.07,-293.09 125.14,-292.19"/>
<text text-anchor="middle" x="137" y="-272.3" font-family="Times,serif" font-size="14.00">generateFastqs</text>
</g>
<!-- call&#45;getPhiXData -->
<g id="node2" class="node">
<title>call&#45;getPhiXData</title>
<path fill="none" stroke="black" d="M125.2,-204.84C125.2,-204.84 50.6,-191.16 50.6,-191.16 44.7,-190.08 44.7,-187.92 50.6,-186.84 50.6,-186.84 125.2,-173.16 125.2,-173.16 131.1,-172.08 142.9,-172.08 148.8,-173.16 148.8,-173.16 223.4,-186.84 223.4,-186.84 229.3,-187.92 229.3,-190.08 223.4,-191.16 223.4,-191.16 148.8,-204.84 148.8,-204.84 142.9,-205.92 131.1,-205.92 125.2,-204.84"/>
<text text-anchor="middle" x="137" y="-185.3" font-family="Times,serif" font-size="14.00">getPhiXData</text>
</g>
<!-- call&#45;generateFastqs&#45;&gt;call&#45;getPhiXData -->
<g id="edge1" class="edge">
<title>call&#45;generateFastqs&#45;&gt;call&#45;getPhiXData</title>
<path fill="none" stroke="black" d="M137,-257.8C137,-246.16 137,-230.55 137,-217.24"/>
<polygon fill="black" stroke="black" points="140.5,-217.18 137,-207.18 133.5,-217.18 140.5,-217.18"/>
<text text-anchor="middle" x="244.5" y="-228.8" font-family="Times,serif" font-size="14.00"> &#160;&#160;&#160;&#160;Undetermined reads 1 &amp; 2</text>
</g>
<!-- call&#45;formatData -->
<g id="node3" class="node">
<title>call&#45;formatData</title>
<path fill="none" stroke="black" d="M125.23,-117.65C125.23,-117.65 58.61,-104.35 58.61,-104.35 52.73,-103.17 52.73,-100.83 58.61,-99.65 58.61,-99.65 125.23,-86.35 125.23,-86.35 131.12,-85.17 142.88,-85.17 148.77,-86.35 148.77,-86.35 215.39,-99.65 215.39,-99.65 221.27,-100.83 221.27,-103.17 215.39,-104.35 215.39,-104.35 148.77,-117.65 148.77,-117.65 142.88,-118.83 131.12,-118.83 125.23,-117.65"/>
<text text-anchor="middle" x="137" y="-98.3" font-family="Times,serif" font-size="14.00">formatData</text>
</g>
<!-- call&#45;getPhiXData&#45;&gt;call&#45;formatData -->
<g id="edge2" class="edge">
<title>call&#45;getPhiXData&#45;&gt;call&#45;formatData</title>
<path fill="none" stroke="black" d="M137,-170.8C137,-159.16 137,-143.55 137,-130.24"/>
<polygon fill="black" stroke="black" points="140.5,-130.18 137,-120.18 133.5,-130.18 140.5,-130.18"/>
<text text-anchor="middle" x="191.5" y="-141.8" font-family="Times,serif" font-size="14.00"> &#160;&#160;&#160;&#160;Output data</text>
</g>
<!-- output -->
<g id="node4" class="node">
<title>output</title>
<path fill="none" stroke="black" d="M12,-0.5C12,-0.5 262,-0.5 262,-0.5 268,-0.5 274,-6.5 274,-12.5 274,-12.5 274,-34.5 274,-34.5 274,-40.5 268,-46.5 262,-46.5 262,-46.5 12,-46.5 12,-46.5 6,-46.5 0,-40.5 0,-34.5 0,-34.5 0,-12.5 0,-12.5 0,-6.5 6,-0.5 12,-0.5"/>
<text text-anchor="middle" x="137" y="-31.3" font-family="Times,serif" font-size="14.00">Decontaminated reads</text>
<polyline fill="none" stroke="black" points="0,-23.5 274,-23.5 "/>
<text text-anchor="middle" x="137" y="-8.3" font-family="Times,serif" font-size="14.00">Contamination data (JSON and TXT)</text>
</g>
<!-- call&#45;formatData&#45;&gt;output -->
<g id="edge4" class="edge">
<title>call&#45;formatData&#45;&gt;output</title>
<path fill="none" stroke="black" d="M137,-83.64C137,-75.7 137,-66.02 137,-56.81"/>
<polygon fill="black" stroke="black" points="140.5,-56.74 137,-46.74 133.5,-56.74 140.5,-56.74"/>
</g>
<!-- input -->
<g id="node5" class="node">
<title>input</title>
<path fill="none" stroke="black" d="M101.5,-331.5C101.5,-331.5 172.5,-331.5 172.5,-331.5 178.5,-331.5 184.5,-337.5 184.5,-343.5 184.5,-343.5 184.5,-388.5 184.5,-388.5 184.5,-394.5 178.5,-400.5 172.5,-400.5 172.5,-400.5 101.5,-400.5 101.5,-400.5 95.5,-400.5 89.5,-394.5 89.5,-388.5 89.5,-388.5 89.5,-343.5 89.5,-343.5 89.5,-337.5 95.5,-331.5 101.5,-331.5"/>
<text text-anchor="middle" x="137" y="-385.3" font-family="Times,serif" font-size="14.00">BCL data</text>
<polyline fill="none" stroke="black" points="89.5,-377.5 184.5,-377.5 "/>
<text text-anchor="middle" x="137" y="-362.3" font-family="Times,serif" font-size="14.00">lanes</text>
<polyline fill="none" stroke="black" points="89.5,-354.5 184.5,-354.5 "/>
<text text-anchor="middle" x="137" y="-339.3" font-family="Times,serif" font-size="14.00">basesMask</text>
</g>
<!-- input&#45;&gt;call&#45;generateFastqs -->
<g id="edge3" class="edge">
<title>input&#45;&gt;call&#45;generateFastqs</title>
<path fill="none" stroke="black" d="M137,-331.48C137,-322.6 137,-313.12 137,-304.59"/>
<polygon fill="black" stroke="black" points="140.5,-304.42 137,-294.42 133.5,-304.42 140.5,-304.42"/>
</g>
</g>
</svg>
